Coordinates
version=1
nRows=24
nColumns=38
inDegrees=no

Units are S.I. units (second, meters, Newtons, ...)
If the header above contains a line with 'inDegrees', this indicates whether rotational values are in degrees (yes) or radians (no).

endheader
time	pelvis_tilt	pelvis_list	pelvis_rotation	pelvis_tx	pelvis_ty	pelvis_tz	hip_flexion_r	hip_adduction_r	hip_rotation_r	knee_angle_r	ankle_angle_r	subtalar_angle_r	mtp_angle_r	hip_flexion_l	hip_adduction_l	hip_rotation_l	knee_angle_l	ankle_angle_l	subtalar_angle_l	mtp_angle_l	lumbar_extension	lumbar_bending	lumbar_rotation	arm_flex_r	arm_add_r	arm_rot_r	elbow_flex_r	pro_sup_r	wrist_flex_r	wrist_dev_r	arm_flex_l	arm_add_l	arm_rot_l	elbow_flex_l	pro_sup_l	wrist_flex_l	wrist_dev_l
15	3.03387	1.37031	-1.46817	0.667577	0.320461	0.93859	-0.265008	-0.0656516	-0.34382	0.0867488	0.0180396	0	0	-0.188959	-0.121972	-0.328978	0.191213	0.0571546	0	0	-0.328597	0.00281035	0.0444769	0.0477477	-0.373597	0.247248	0.491856	0.957848	0	0	0.101967	-0.27532	-0.38434	0.495336	1.55206	0	0
15.01	3.02937	1.36968	-1.46287	0.667325	0.31958	0.938145	-0.253377	-0.0688377	-0.349342	0.109245	0.0281123	0	0	-0.179825	-0.125726	-0.327998	0.207553	0.0616968	0	0	-0.333935	0.00399574	0.0436779	0.0531337	-0.375546	0.249778	0.494151	0.952668	0	0	0.107351	-0.277696	-0.380121	0.496957	1.54562	0	0
15.02	3.02515	1.369	-1.45754	0.667046	0.318611	0.937607	-0.241309	-0.0722873	-0.354762	0.13273	0.0383996	0	0	-0.169845	-0.129868	-0.327289	0.225347	0.0682221	0	0	-0.339711	0.00521841	0.0425918	0.0590006	-0.377579	0.25189	0.496513	0.947251	0	0	0.113071	-0.28025	-0.375229	0.498995	1.53811	0	0
15.03	3.02033	1.36861	-1.45172	0.666789	0.317607	0.936935	-0.228699	-0.075861	-0.359639	0.156681	0.0489518	0	0	-0.158884	-0.134514	-0.32732	0.244388	0.0765559	0	0	-0.345373	0.00649795	0.041606	0.0653108	-0.379633	0.253777	0.498708	0.942533	0	0	0.119035	-0.283028	-0.369638	0.501049	1.52996	0	0
15.04	3.0157	1.36855	-1.44655	0.666596	0.316694	0.936136	-0.215846	-0.079694	-0.36289	0.180614	0.0597496	0	0	-0.147635	-0.139146	-0.327781	0.263669	0.0847558	0	0	-0.350622	0.00755225	0.0410963	0.0714061	-0.381821	0.25604	0.501279	0.936789	0	0	0.124993	-0.285892	-0.363974	0.502945	1.52158	0	0
15.05	3.01129	1.36839	-1.44148	0.666399	0.315781	0.93524	-0.202967	-0.0836267	-0.365261	0.204845	0.0703711	0	0	-0.136149	-0.143806	-0.327342	0.283599	0.0928049	0	0	-0.356157	0.00869871	0.040478	0.0777719	-0.384099	0.259045	0.503804	0.930644	0	0	0.131249	-0.288911	-0.358435	0.504403	1.51336	0	0
15.06	3.00614	1.36827	-1.4349	0.666125	0.314775	0.934231	-0.189901	-0.0873749	-0.36727	0.229493	0.0808689	0	0	-0.123671	-0.148873	-0.325409	0.304691	0.100888	0	0	-0.362017	0.010261	0.0391965	0.0845612	-0.386461	0.261604	0.506541	0.924912	0	0	0.138009	-0.292103	-0.352583	0.506008	1.5056	0	0
15.07	3.00143	1.36824	-1.4286	0.66585	0.313731	0.933066	-0.176337	-0.0915061	-0.369276	0.25512	0.0917851	0	0	-0.110823	-0.153879	-0.322791	0.32611	0.10892	0	0	-0.368036	0.0116539	0.037827	0.0915569	-0.388809	0.263626	0.509372	0.919804	0	0	0.145122	-0.295285	-0.346332	0.508519	1.49729	0	0
15.08	2.99784	1.36843	-1.42346	0.66557	0.312663	0.931723	-0.161899	-0.0964347	-0.37125	0.28222	0.103442	0	0	-0.0974713	-0.15856	-0.319868	0.347973	0.117075	0	0	-0.374034	0.0127478	0.0366022	0.0986506	-0.391191	0.264918	0.512469	0.914235	0	0	0.152778	-0.298392	-0.339368	0.511547	1.48735	0	0
15.09	2.99541	1.37036	-1.4194	0.665296	0.311439	0.930017	-0.143377	-0.103076	-0.37397	0.314087	0.117802	0	0	-0.0808908	-0.163056	-0.31658	0.372213	0.126415	0	0	-0.378601	0.0133289	0.0355443	0.105794	-0.394283	0.270117	0.516518	0.895746	0	0	0.157886	-0.3048	-0.30841	0.519949	1.41465	0	0
15.1	2.99351	1.37025	-1.41583	0.665024	0.310283	0.928458	-0.128939	-0.108247	-0.373209	0.341358	0.128173	0	0	-0.0678235	-0.167129	-0.312381	0.393741	0.134132	0	0	-0.385573	0.0142386	0.0342658	0.113665	-0.396863	0.271305	0.519622	0.893396	0	0	0.166889	-0.307596	-0.305917	0.521776	1.41716	0	0
15.11	2.99417	1.37169	-1.4151	0.664759	0.309004	0.926592	-0.11084	-0.115235	-0.372567	0.372701	0.140431	0	0	-0.0524114	-0.170455	-0.308441	0.41662	0.142944	0	0	-0.39142	0.0143065	0.0330594	0.121833	-0.399512	0.272115	0.523089	0.888804	0	0	0.176327	-0.310487	-0.302046	0.523837	1.41672	0	0
15.12	2.99727	1.37427	-1.41769	0.664567	0.30754	0.924465	-0.0894713	-0.123563	-0.369963	0.407492	0.15376	0	0	-0.0354374	-0.173078	-0.305337	0.44039	0.152181	0	0	-0.39671	0.0134188	0.0322856	0.130957	-0.401895	0.272123	0.526097	0.883412	0	0	0.186209	-0.313518	-0.296962	0.526283	1.41173	0	0
15.13	3.00083	1.37614	-1.42201	0.664558	0.306112	0.922308	-0.0691177	-0.130942	-0.363776	0.440648	0.165558	0	0	-0.0202378	-0.175652	-0.303358	0.463048	0.160954	0	0	-0.402903	0.0119915	0.032754	0.140404	-0.403997	0.271677	0.528669	0.879149	0	0	0.19614	-0.316673	-0.290627	0.529895	1.40124	0	0
15.14	3.00529	1.37824	-1.42763	0.664634	0.304567	0.919977	-0.0477948	-0.138264	-0.356101	0.474546	0.177489	0	0	-0.00448069	-0.178117	-0.301479	0.4863	0.169963	0	0	-0.409222	0.0100853	0.0337102	0.150036	-0.406478	0.273214	0.53212	0.868107	0	0	0.20488	-0.321954	-0.270263	0.537244	1.3531	0	0
15.15	2.94908	1.37728	-1.3783	0.665204	0.301278	0.918532	-0.0255347	-0.151687	-0.418551	0.5131	0.182587	0	0	0.0125021	-0.194595	-0.302365	0.512647	0.177045	0	0	-0.422249	0.019252	0.0432363	0.165965	-0.411215	0.274263	0.534366	0.869151	0	0	0.221983	-0.320104	-0.277387	0.536022	1.3771	0	0
15.16	3.01931	1.38171	-1.44231	0.664625	0.301458	0.914966	-0.00723501	-0.153229	-0.342649	0.540155	0.200147	0	0	0.0274549	-0.181996	-0.294672	0.534101	0.18764	0	0	-0.423353	0.00601462	0.0337472	0.170084	-0.410802	0.272589	0.538287	0.862573	0	0	0.226214	-0.329566	-0.251968	0.545988	1.32376	0	0
15.17	2.96112	1.38137	-1.39129	0.665113	0.298062	0.913184	0.0144455	-0.166504	-0.401158	0.575438	0.203082	0	0	0.04607	-0.198578	-0.294797	0.561866	0.194696	0	0	-0.436354	0.0152598	0.0434951	0.187002	-0.416364	0.274156	0.540999	0.862253	0	0	0.243889	-0.32703	-0.259495	0.545169	1.34849	0	0
15.18	2.96481	1.38593	-1.3959	0.665188	0.296279	0.909924	0.0389896	-0.173655	-0.39079	0.609066	0.214571	0	0	0.0672288	-0.200953	-0.290624	0.589063	0.204594	0	0	-0.441079	0.0129043	0.0443312	0.197664	-0.418381	0.270142	0.544309	0.861821	0	0	0.253277	-0.333194	-0.231957	0.554801	1.28173	0	0
15.19	3.03127	1.38666	-1.45548	0.664798	0.296576	0.906215	0.053024	-0.170816	-0.319998	0.634442	0.231422	0	0	0.0783453	-0.190106	-0.282531	0.609806	0.214858	0	0	-0.445979	0.00143598	0.0344655	0.202795	-0.417533	0.26757	0.548153	0.860662	0	0	0.26045	-0.340587	-0.221721	0.561947	1.27132	0	0
15.2	3.0347	1.3884	-1.45893	0.66482	0.294896	0.903019	0.0728903	-0.17586	-0.312186	0.664589	0.240628	0	0	0.0957782	-0.19275	-0.27802	0.635396	0.2243	0	0	-0.454045	0.000249935	0.0343303	0.214449	-0.419812	0.266167	0.551487	0.858548	0	0	0.272915	-0.343709	-0.213832	0.56701	1.25495	0	0
15.21	3.03936	1.39041	-1.46334	0.664824	0.293111	0.899707	0.0928242	-0.180849	-0.304414	0.693974	0.249749	0	0	0.113771	-0.195125	-0.273426	0.661184	0.234029	0	0	-0.462385	-0.00102647	0.0339159	0.226698	-0.422048	0.265113	0.554621	0.856741	0	0	0.286179	-0.346535	-0.207756	0.571847	1.23845	0	0
15.22	2.97765	1.39278	-1.40925	0.665263	0.289196	0.897092	0.115927	-0.19305	-0.35244	0.722758	0.249446	0	0	0.136488	-0.210817	-0.270612	0.689777	0.241069	0	0	-0.475189	0.00761277	0.0444731	0.245953	-0.427957	0.265487	0.55801	0.855991	0	0	0.306112	-0.343074	-0.212715	0.572219	1.25266	0	0
15.23	3.00233	1.39668	-1.433	0.666692	0.288363	0.892633	0.145859	-0.164204	-0.252623	0.779777	0.415366	0	0	0.155447	-0.213179	-0.269632	0.717821	0.252176	0	0	-0.479326	-0.0006202	0.042605	0.254231	-0.425578	0.262044	0.561595	0.853414	0	0	0.31774	-0.350808	-0.202811	0.579917	1.24721	0	0
